# xmcd CD database file
#
# Track frame offsets:
#	150
#	21167
#	42725
#	63142
#	81845
#	95905
#	116047
#	136775
#	154315
#	172482
#	193120
#	212340
#
# Disc length: 3022 seconds
#
# Revision: 4
# Processed by: cddbd v1.5.2PL0 Copyright (c) Steve Scherf et al.
# Submitted via: CDex 1.70beta2
#
DISCID=af0bcc0c
DTITLE=David Benoit - Remembering Christmas
DYEAR=1996
DGENRE=Jazz
TTITLE0=Skating
TTITLE1=Santa Claus is Coming to Town
TTITLE2=Angels We Have Heard on High
TTITLE3=Christmas Time is Here
TTITLE4=Jesu, Joy of Man's Desiring
TTITLE5=Hark, the Herald Angels Sing
TTITLE6=Do You Hear What I Hear?
TTITLE7=Christmas is Coming
TTITLE8=Silent Night
TTITLE9=Remembering Christmas
TTITLE10=The First Noel (Theme and variations)
TTITLE11=The Christmas Song
EXTD=YEAR: 1996
EXTT0=
EXTT1=
EXTT2=
EXTT3=
EXTT4=
EXTT5=
EXTT6=
EXTT7=
EXTT8=
EXTT9=
EXTT10=
EXTT11=
PLAYORDER=
